PathFileType	4	(X/Y/Z)	./resultDataOpenSim/trcMotMarkerGrf/sub10/qtm-13-06.trc
DataRate	CameraRate	NumFrames	NumMarkers	Units	OrigDataRate	OrigDataStartFrame	OrigNumFrames
250.000000	250.000000	9	24	m	250.000000	449	513
Frame#	Time	L.Toe.Tip			R.Toe.Tip			L.Ankle.Lat			R.Ankle.Lat			L.Ankle.Med			R.Ankle.Med			L.Heel			R.Heel			L.Knee.Lat			R.Knee.Lat			L.Knee.Med			R.Knee.Med			L.Thigh.Upper			R.Thigh.Upper			L.ASIS			R.ASIS			V.Sacral			L.Acromium			R.Acromium			C7			L.Elbow			R.Elbow			L.Wrist.Lat			R.Wrist.Lat
		X1	Y1	Z1	X2	Y2	Z2	X3	Y3	Z3	X4	Y4	Z4	X5	Y5	Z5	X6	Y6	Z6	X7	Y7	Z7	X8	Y8	Z8	X9	Y9	Z9	X10	Y10	Z10	X11	Y11	Z11	X12	Y12	Z12	X13	Y13	Z13	X14	Y14	Z14	X15	Y15	Z15	X16	Y16	Z16	X17	Y17	Z17	X18	Y18	Z18	X19	Y19	Z19	X20	Y20	Z20	X21	Y21	Z21	X22	Y22	Z22	X23	Y23	Z23	X24	Y24	Z24

449	1.792	1.7033459	0.10826322	-0.13220885	0.94834057	0.038615065	0.004264398	1.5742936	0.076794377	-0.16753655	0.82713185	0.099297065	0.054248157	1.5743527	0.10404488	-0.085567163	0.85073566	0.11894533	-0.03146193	1.5270075	0.021811296	-0.12420595	0.7672502	0.096366653	0.0098465689	1.4407957	0.44665997	-0.19038158	1.0578478	0.43350568	0.081779103	1.4549698	0.42292171	-0.070654453	1.0766197	0.42909581	-0.045101105	1.2829008	0.79353109	-0.24672617	1.1634294	0.82988148	0.13140829	1.3195986	0.90423997	-0.16900749	1.2639369	0.91372375	0.078003504	1.0994943	0.91483736	-0.097656627	1.2097864	1.3748632	-0.23111557	1.1964513	1.3749891	0.095320902	1.1164382	1.4012987	-0.074872888	1.0788138	1.0598376	-0.28113331	1.2445493	1.0259826	0.17708398	1.1439848	0.83438794	-0.33753963	1.4810606	0.94949002	0.19945481
450	1.796	1.7064942	0.10532976	-0.13254304	0.9487276	0.038602876	0.0043211111	1.5773187	0.074977107	-0.16730556	0.82945004	0.10149236	0.054709409	1.5777429	0.1022205	-0.085179945	0.85275487	0.1207253	-0.030959384	1.5288752	0.021385392	-0.12382469	0.76903902	0.099444917	0.010306892	1.4474169	0.44622801	-0.19027489	1.0635614	0.4332327	0.081465587	1.4624874	0.42290189	-0.070557437	1.0818513	0.42874306	-0.04520301	1.2893808	0.79323951	-0.24697087	1.169016	0.82945936	0.13109149	1.3261513	0.90402241	-0.16946402	1.2702903	0.91315984	0.077569488	1.1058852	0.91432422	-0.098043281	1.215164	1.374232	-0.23243386	1.2024866	1.3746211	0.09406622	1.1221421	1.4006197	-0.076021237	1.0844818	1.05901	-0.28171351	1.2496904	1.025254	0.17511283	1.1494673	0.83348929	-0.33809278	1.486374	0.94870825	0.19712164
451	1.8	1.7095455	0.1016593	-0.13302582	0.94913629	0.038581806	0.0044188662	1.5800687	0.073233801	-0.16702611	0.83154266	0.10376864	0.0551245	1.581011	0.10040078	-0.084736058	0.85492086	0.12254855	-0.030471644	1.5302971	0.021199092	-0.12342159	0.77096037	0.10262765	0.010720658	1.4539338	0.4457334	-0.19020969	1.0691315	0.43303335	0.08118903	1.4695701	0.42278327	-0.07053256	1.087209	0.42839408	-0.045306223	1.2959715	0.79297266	-0.2472149	1.1746778	0.82904492	0.1307658	1.3327274	0.90384688	-0.16991464	1.2767116	0.91263009	0.077121934	1.1123429	0.9138556	-0.098352622	1.2205788	1.3736132	-0.23377415	1.2085053	1.3742705	0.092784914	1.1278744	1.39996	-0.077201528	1.090175	1.0581829	-0.28230803	1.2548275	1.024558	0.17306972	1.155038	0.83261378	-0.33866793	1.4916007	0.94787207	0.19477213
452	1.804	1.7127448	0.096850488	-0.13354167	0.94955749	0.038544255	0.0045536124	1.5826126	0.07169662	-0.16671703	0.83351355	0.10611863	0.055525928	1.584225	0.098722035	-0.084255621	0.85724521	0.12440937	-0.03000388	1.5313683	0.021336491	-0.12300355	0.77303306	0.10590703	0.011076248	1.4603336	0.44518127	-0.19018685	1.0746069	0.43289612	0.080942188	1.4764293	0.42255212	-0.070554478	1.0927108	0.42803508	-0.045416149	1.3026822	0.79273907	-0.24747034	1.1804371	0.8286045	0.13042131	1.3393111	0.9037101	-0.17034438	1.2832049	0.91212179	0.076643545	1.1188258	0.91345339	-0.098635077	1.2260332	1.3730046	-0.2351403	1.2145206	1.3739363	0.09146742	1.1336154	1.3993212	-0.078413877	1.0959015	1.0573534	-0.28291028	1.2599457	1.0239288	0.17100007	1.1606974	0.83175777	-0.3392724	1.4967201	0.94697846	0.19241588
453	1.808	1.716135	0.090868974	-0.13401381	0.94999474	0.0384966	0.0047053593	1.5850549	0.070458754	-0.16641253	0.83574447	0.10853334	0.055829954	1.5874775	0.097289882	-0.083787108	0.85974299	0.12629924	-0.029556982	1.5322177	0.02190368	-0.12255684	0.7752785	0.10928357	0.011370513	1.4666122	0.44460709	-0.19019782	1.0801073	0.4327795	0.080679645	1.4830504	0.42220543	-0.070596756	1.0983783	0.42765041	-0.045542436	1.3095134	0.79255039	-0.24775906	1.1863369	0.82812429	0.13004016	1.3458869	0.90361564	-0.17074573	1.2897746	0.91162009	0.076126613	1.1252856	0.91311507	-0.098985053	1.231529	1.3724077	-0.2365392	1.2205635	1.3736236	0.090109532	1.1393451	1.3987049	-0.079663888	1.101673	1.0565202	-0.28352043	1.2650958	1.0233975	0.16896127	1.1664386	0.83091444	-0.33991435	1.5017252	0.94603204	0.19006103
454	1.812	1.7195279	0.08429096	-0.13450229	0.95045196	0.038457907	0.0048420532	1.5874536	0.069531573	-0.16616757	0.83845244	0.1110186	0.056001833	1.5908281	0.096116219	-0.083399419	0.86243006	0.12820991	-0.029124915	1.532994	0.022848027	-0.12209911	0.77771525	0.11276265	0.011608473	1.4727859	0.44407918	-0.19023051	1.0857104	0.43265577	0.080380347	1.4891901	0.42176958	-0.070655193	1.1042274	0.4272301	-0.045690958	1.3164585	0.7924205	-0.24810062	1.1924103	0.82761077	0.12961417	1.3524403	0.90356848	-0.17111985	1.2964322	0.91112641	0.07556885	1.1317001	0.91282434	-0.099445954	1.2370671	1.3718251	-0.23797531	1.2266465	1.3733495	0.088725502	1.1450567	1.3981205	-0.080959288	1.1074965	1.0556867	-0.28414078	1.2703483	1.0229756	0.16699062	1.1722486	0.83007623	-0.34059267	1.5066402	0.94503911	0.18770836
455	1.816	1.7226727	0.078051036	-0.13510127	0.95093081	0.038442865	0.0049368411	1.5897869	0.068834419	-0.16604235	0.84144926	0.11358806	0.056132188	1.5942364	0.095139408	-0.083154317	0.86532088	0.13013874	-0.028698522	1.533815	0.023975963	-0.12170493	0.78035809	0.116342	0.011789956	1.478904	0.44368109	-0.19027942	1.091473	0.43253338	0.08005578	1.4946306	0.42131237	-0.070758483	1.1102742	0.42676858	-0.045854665	1.3235156	0.79236639	-0.24849622	1.1986846	0.82706117	0.12914266	1.358961	0.90356944	-0.1714829	1.3032049	0.91065687	0.074955239	1.1380769	0.91257755	-0.10000014	1.242652	1.3712609	-0.23944682	1.232757	1.3731372	0.087335505	1.1507592	1.3975814	-0.082305644	1.113365	1.0548664	-0.28477164	1.2756661	1.0226365	0.16504937	1.178128	0.82924257	-0.34129181	1.5114981	0.94399923	0.18534907
456	1.82	1.7254661	0.072821811	-0.13582453	0.95143682	0.038440826	0.0049954113	1.5920151	0.068232007	-0.16606644	0.84436906	0.11622107	0.056283582	1.5975796	0.094297893	-0.08307776	0.86843302	0.13208979	-0.028272233	1.5347332	0.025103373	-0.12146117	0.78322273	0.12001448	0.011905104	1.4850459	0.4434908	-0.19035068	1.0974386	0.43242641	0.079718293	1.4995967	0.42094217	-0.070939284	1.1165445	0.42625738	-0.046009508	1.3306942	0.79241101	-0.24892982	1.205117	0.82647371	0.12864148	1.3654426	0.90361818	-0.17186961	1.3101124	0.91021809	0.074255822	1.1443972	0.91238003	-0.1007109	1.2482878	1.3707205	-0.2409458	1.2388832	1.3730041	0.0859487	1.1564727	1.397098	-0.083702435	1.1192684	1.0540709	-0.28541311	1.280917	1.0223187	0.16304563	1.1840935	0.82842338	-0.34198845	1.5163077	0.94290773	0.18297561
457	1.824	1.7279742	0.068661763	-0.13655986	0.95197426	0.038420898	0.0050498709	1.5941323	0.067629547	-0.16622401	0.84690243	0.11886106	0.056427303	1.600732	0.093573127	-0.083155412	0.87179403	0.13406769	-0.027846555	1.5357434	0.026153627	-0.12140889	0.78633081	0.12377682	0.011936736	1.4912976	0.44356438	-0.19045853	1.1036222	0.43231569	0.079367166	1.5046893	0.42077394	-0.071195591	1.1230662	0.42568489	-0.046129574	1.338003	0.79258586	-0.24938063	1.2116803	0.82584651	0.12812107	1.3718832	0.90371905	-0.17230779	1.3170987	0.90980485	0.073481077	1.1506117	0.91224764	-0.10170101	1.2539676	1.3702135	-0.24246119	1.2450238	1.3729538	0.084563734	1.1622231	1.3966779	-0.085143088	1.1252116	1.0533037	-0.28607399	1.2860205	1.0219857	0.16093612	1.1901562	0.82763263	-0.34266829	1.5210589	0.94176608	0.18059264
